HIERARCHY
ROOT Hips
{
	OFFSET 0.000000 0.000000 0.000000
	CHANNELS 6 Xposition Yposition Zposition Xrotation Yrotation Zrotation
	JOINT LeftUpLeg_virtual
	{
		OFFSET 0.000000 0.000000 0.000000
		CHANNELS 3 Xrotation Yrotation Zrotation
		JOINT LeftUpLeg
		{
			OFFSET 15.427100 -6.655098 0.678600
			CHANNELS 3 Xrotation Yrotation Zrotation
			JOINT LeftLeg
			{
				OFFSET 4.081073 -39.591068 13.024000
				CHANNELS 3 Xrotation Yrotation Zrotation
				JOINT LeftFoot
				{
					OFFSET -4.081074 -37.707932 -15.979700
					CHANNELS 3 Xrotation Yrotation Zrotation
					JOINT LeftToeBase
					{
						OFFSET 5.346399 -15.068900 20.645000
						CHANNELS 3 Xrotation Yrotation Zrotation
						JOINT LeftToe_End
						{
							OFFSET 2.754700 0.931300 11.300900
							CHANNELS 3 Xrotation Yrotation Zrotation
							End Site
							{
								OFFSET 0 0 0
							}
						}
					}
				}
			}
		}
	}
	JOINT RightUpLeg_virtual
	{
		OFFSET 0.000000 0.000000 0.000000
		CHANNELS 3 Xrotation Yrotation Zrotation
		JOINT RightUpLeg
		{
			OFFSET -15.569500 -6.655098 0.678600
			CHANNELS 3 Xrotation Yrotation Zrotation
			JOINT RightLeg
			{
				OFFSET -4.081825 -39.591045 13.023800
				CHANNELS 3 Xrotation Yrotation Zrotation
				JOINT RightFoot
				{
					OFFSET 4.081824 -37.707954 -15.979600
					CHANNELS 3 Xrotation Yrotation Zrotation
					JOINT RightToeBase
					{
						OFFSET -5.346400 -15.068900 20.645000
						CHANNELS 3 Xrotation Yrotation Zrotation
						JOINT RightToe_End
						{
							OFFSET -2.754700 0.931300 11.300900
							CHANNELS 3 Xrotation Yrotation Zrotation
							End Site
							{
								OFFSET 0 0 0
							}
						}
					}
				}
			}
		}
	}
	JOINT Spine_virtual
	{
		OFFSET 0.000000 0.000000 0.000000
		CHANNELS 3 Xrotation Yrotation Zrotation
		JOINT Spine
		{
			OFFSET -0.279200 12.230698 -2.892100
			CHANNELS 3 Xrotation Yrotation Zrotation
			JOINT Spine1
			{
				OFFSET -0.232667 10.192268 -1.242267
				CHANNELS 3 Xrotation Yrotation Zrotation
				JOINT Spine1_split
				{
					OFFSET -0.232667 10.192268 -1.242267
					CHANNELS 3 Xrotation Yrotation Zrotation
					JOINT Spine2
					{
						OFFSET -0.232667 10.192268 -1.242267
						CHANNELS 3 Xrotation Yrotation Zrotation
						JOINT Neck_virtual
						{
							OFFSET 0.000000 0.000000 0.000000
							CHANNELS 3 Xrotation Yrotation Zrotation
							JOINT Neck
							{
								OFFSET -0.418800 17.814194 8.416900
								CHANNELS 3 Xrotation Yrotation Zrotation
								JOINT Head
								{
									OFFSET 0.000000 7.031097 3.806800
									CHANNELS 3 Xrotation Yrotation Zrotation
									JOINT HeadTop_End
									{
										OFFSET 0.000000 24.646606 12.978600
										CHANNELS 3 Xrotation Yrotation Zrotation
										End Site
										{
											OFFSET 0 0 0
										}
									}
								}
							}
						}
						JOINT LeftShoulder_virtual
						{
							OFFSET 0.000000 0.000000 0.000000
							CHANNELS 3 Xrotation Yrotation Zrotation
							JOINT LeftShoulder
							{
								OFFSET 8.476499 7.247704 -3.868750
								CHANNELS 3 Xrotation Yrotation Zrotation
								JOINT LeftShoulder_split
								{
									OFFSET 8.476499 7.247704 -3.868750
									CHANNELS 3 Xrotation Yrotation Zrotation
									JOINT LeftArm
									{
										OFFSET 9.308998 -2.777710 0.208600
										CHANNELS 3 Xrotation Yrotation Zrotation
										JOINT LeftForeArm
										{
											OFFSET 29.972298 0.000000 0.000000
											CHANNELS 3 Xrotation Yrotation Zrotation
											JOINT LeftHand
											{
												OFFSET 26.026505 0.000000 0.000000
												CHANNELS 3 Xrotation Yrotation Zrotation
												End Site
												{
													OFFSET 0 0 0
												}
											}
										}
									}
								}
							}
						}
						JOINT RightShoulder_virtual
						{
							OFFSET 0.000000 0.000000 0.000000
							CHANNELS 3 Xrotation Yrotation Zrotation
							JOINT RightShoulder
							{
								OFFSET -7.570500 7.247704 -3.868750
								CHANNELS 3 Xrotation Yrotation Zrotation
								JOINT RightShoulder_split
								{
									OFFSET -7.570500 7.247704 -3.868750
									CHANNELS 3 Xrotation Yrotation Zrotation
									JOINT RightArm
									{
										OFFSET -9.308998 -2.777710 0.208500
										CHANNELS 3 Xrotation Yrotation Zrotation
										JOINT RightForeArm
										{
											OFFSET -29.972300 0.000000 0.000000
											CHANNELS 3 Xrotation Yrotation Zrotation
											JOINT RightHand
											{
												OFFSET -26.026505 0.000000 0.000000
												CHANNELS 3 Xrotation Yrotation Zrotation
												End Site
												{
													OFFSET 0 0 0
												}
											}
										}
									}
								}
							}
						}
					}
				}
			}
		}
	}
}
MOTION
Frames: 7
Frame Time: 0.03333333
-1.718145 77.252258 8.742996 0.000000 0.000000 0.000000 13.203419 -77.776771 11.183002 -28.988774 49.387602 49.794248 50.713065 9.231492 -12.789652 -27.455824 5.740535 13.603555 -13.684855 4.626934 -7.526559 0.000000 0.000000 0.000000 6.984814 -65.410597 5.612721 -19.326625 -3.292245 -29.695549 26.327425 6.320219 -4.626432 -18.301166 1.380925 30.730186 -9.453877 -1.110562 -2.075196 0.000000 0.000000 0.000000 -2.874711 -71.737163 -2.093259 12.393329 -11.973297 12.802104 -3.861939 -10.657002 5.112358 -1.115460 -2.090527 0.822776 0.000000 0.000000 0.000000 -8.599596 -11.136545 5.335629 3.167366 39.278424 1.161378 9.910645 23.733188 -5.861452 0.000000 0.000000 0.000000 -9.620764 -11.107044 5.305551 5.499352 -19.825454 17.868924 8.376067 1.897691 -6.796342 -1.917560 -15.379358 6.010988 0.719509 -34.728609 -1.747131 0.000000 0.000000 0.000000 -11.487642 -11.608424 4.964149 4.433698 -19.827132 8.383456 4.764270 -0.442831 -0.926611 -55.419004 4.101447 -10.180963 -10.253261 50.466427 14.256375 0.000000 0.000000 0.000000 
-2.883199 78.806732 10.071861 0.000000 0.000000 0.000000 5.450044 -75.971552 3.524307 -22.709430 50.870880 45.573659 45.817954 11.796084 -10.647317 -33.547150 8.917880 16.916548 -6.344746 5.065926 -11.752120 0.000000 0.000000 0.000000 1.650266 -63.101372 0.457171 -13.032735 -4.212543 -28.925032 27.539615 3.535427 -3.579146 -22.620086 -3.176788 23.178206 -12.282476 -2.865094 0.708147 0.000000 0.000000 0.000000 -6.436662 -69.734319 -6.407701 10.782057 -11.801463 12.360161 -4.632988 -10.879793 5.204503 -0.348267 -1.832111 1.048232 0.000000 0.000000 0.000000 -9.828609 -11.435266 5.335874 4.662357 35.247772 3.466876 10.183746 21.190961 -3.174400 0.000000 0.000000 0.000000 -11.101543 -11.287762 5.158360 6.663077 -21.037316 26.364896 8.235151 1.353060 -7.327631 -5.161895 -25.529869 10.454423 2.218348 -27.138855 0.833646 0.000000 0.000000 0.000000 -13.158928 -11.885309 4.918561 2.488039 -20.041547 5.977682 4.970687 -1.574196 -0.221784 -59.407592 6.847368 -12.818831 -8.739946 48.868842 14.708992 0.000000 0.000000 0.000000 
-3.847345 80.392944 11.585499 0.000000 0.000000 0.000000 -1.242189 -72.036584 -2.594162 -16.791291 49.937938 41.171735 42.007955 9.950401 -7.431568 -33.294966 10.945422 12.403076 -4.458964 5.248451 -14.699527 0.000000 0.000000 0.000000 -3.346950 -61.167459 -3.591396 -7.523270 -3.483357 -28.519180 30.102300 -1.140975 -2.156327 -22.728812 -7.392683 12.654291 -17.591250 -5.841992 6.301252 0.000000 0.000000 0.000000 -7.073799 -66.799052 -7.601905 9.020593 -11.488747 11.530212 -5.568552 -10.781310 4.939946 1.227620 -1.832125 0.428508 0.000000 0.000000 0.000000 -10.980770 -11.374441 5.019658 7.034305 30.946030 5.097540 10.252786 19.380274 -1.002322 0.000000 0.000000 0.000000 -12.653246 -11.276724 4.844849 7.242511 -20.339421 35.098532 7.198339 1.512983 -7.599245 -11.900945 -34.819416 11.505497 3.575804 -21.811405 3.131907 0.000000 0.000000 0.000000 -14.865031 -11.973389 4.685907 0.442002 -20.250384 2.689268 4.157590 -2.732570 0.488550 -63.537186 9.136023 -14.432726 -5.839673 46.941035 13.935602 0.000000 0.000000 0.000000 
-4.661984 81.721489 13.448483 0.000000 0.000000 0.000000 -4.584703 -66.149904 -5.356047 -11.696385 48.245775 37.202572 38.810337 5.962464 -4.205947 -28.844777 11.588782 3.129977 -7.539352 5.511887 -15.784613 0.000000 0.000000 0.000000 -7.264452 -59.439940 -6.159571 -3.468789 -1.133942 -28.936390 33.879278 -5.705381 -0.155673 -15.525039 -10.811115 4.156982 -27.277363 -10.234814 12.376753 0.000000 0.000000 0.000000 -5.865688 -63.097021 -6.657984 7.171828 -11.054437 10.193817 -6.681729 -10.371466 4.191650 2.312920 -2.176555 -0.172866 0.000000 0.000000 0.000000 -11.944037 -10.931170 4.235024 9.728986 26.614320 6.065637 10.547528 18.145427 0.258275 0.000000 0.000000 0.000000 -14.146211 -10.980072 4.236229 6.671043 -18.003154 42.855639 5.707290 3.247955 -6.992358 -23.216356 -41.500468 8.217916 4.271371 -20.073460 4.706730 0.000000 0.000000 0.000000 -16.505475 -11.821424 4.059090 -1.703198 -20.666436 -2.172559 2.478239 -3.369678 0.757866 -66.918553 9.388694 -15.509104 -2.323019 45.498414 12.217077 0.000000 0.000000 0.000000 
-5.367530 82.342651 15.420376 0.000000 0.000000 0.000000 -5.456170 -59.338880 -5.986023 -7.478081 47.019145 33.996167 35.908866 2.076908 -1.740266 -24.034027 10.403697 -6.682347 -13.704438 5.478698 -14.597098 0.000000 0.000000 0.000000 -8.637275 -56.557002 -6.780065 -1.689474 1.777920 -29.749299 38.154734 -8.357948 1.883342 -1.314505 -12.704878 2.641691 -38.620058 -14.903370 16.177021 0.000000 0.000000 0.000000 -4.658361 -58.214706 -5.095675 5.537143 -10.584898 8.287711 -7.836594 -9.642295 2.879775 2.826167 -3.047418 -0.197034 0.000000 0.000000 0.000000 -12.727424 -10.119975 2.948165 12.005545 22.194799 6.320997 11.431062 17.005967 0.479910 0.000000 0.000000 0.000000 -15.350529 -10.358971 3.212701 4.767125 -14.458515 48.633962 4.324737 5.263056 -5.151161 -37.108462 -44.550756 1.414015 4.080361 -21.876582 5.276615 0.000000 0.000000 0.000000 -17.935862 -11.243510 2.896175 -4.078647 -21.005564 -9.143022 0.370431 -3.553244 1.193904 -69.836253 7.501901 -16.475069 0.752495 44.335253 9.934028 0.000000 0.000000 0.000000 
-5.903833 81.669289 17.438602 0.000000 0.000000 0.000000 -4.762166 -52.566775 -5.735216 -5.611783 47.192752 32.765486 33.957576 -0.134663 -0.518420 -22.540591 8.512224 -12.964468 -17.871854 4.492750 -12.298222 0.000000 0.000000 0.000000 -7.515246 -51.691561 -5.935014 -2.806495 3.909361 -29.929349 43.350917 -8.145271 4.070610 14.608489 -10.157272 6.729629 -46.642337 -17.610389 17.126957 0.000000 0.000000 0.000000 -3.861068 -51.993572 -3.573939 4.261424 -10.028076 5.941976 -8.807718 -8.541916 1.140298 2.283082 -3.874820 -0.187248 0.000000 0.000000 0.000000 -13.435317 -8.914074 1.190964 13.467078 17.707626 5.864990 13.130034 15.630422 -0.108260 0.000000 0.000000 0.000000 -16.056412 -9.374108 1.716010 1.999380 -10.585491 51.850804 3.347837 6.652950 -2.828147 -48.755946 -44.222647 -5.973549 2.674678 -27.639778 4.509497 0.000000 0.000000 0.000000 -18.992743 -10.183683 1.206338 -6.770312 -20.894307 -18.147828 -1.793368 -3.162149 1.727853 -72.839507 4.161834 -16.949710 2.351935 43.333008 7.608353 0.000000 0.000000 0.000000 
-6.204355 79.995010 19.234140 0.000000 0.000000 0.000000 -3.046446 -46.512386 -5.062195 -8.583854 47.746687 35.473233 34.883815 -1.854481 -0.194728 -23.241119 6.149332 -16.362179 -16.570548 2.510552 -9.916546 0.000000 0.000000 0.000000 -4.991897 -44.195849 -4.880750 -7.252570 3.129198 -29.036357 50.526311 -5.314384 6.378115 25.316067 -3.362859 11.238193 -46.536469 -16.865369 16.598628 0.000000 0.000000 0.000000 -2.789958 -44.338911 -2.250065 3.451905 -9.298321 3.469634 -9.305697 -7.085138 -0.737088 0.885048 -5.027532 0.261889 0.000000 0.000000 0.000000 -13.909814 -7.401323 -0.782079 13.556565 13.108534 4.727307 15.354977 13.518604 -1.005583 0.000000 0.000000 0.000000 -16.169179 -7.978614 -0.111392 -0.964565 -6.944096 52.416023 3.524995 6.372858 -0.489959 -55.702358 -41.767194 -12.206084 0.187119 -36.854164 2.309400 0.000000 0.000000 0.000000 -19.390067 -8.632046 -0.733466 -9.659929 -19.880416 -28.752996 -3.441171 -2.164597 3.302685 -76.284942 0.999821 -16.800066 1.658352 43.729494 5.912750 0.000000 0.000000 0.000000 
